# WaveFront *.obj file (generated by Cheetah3D)

mtllib grass.mtl

g objobjobjobjPlane02
v -0.443921 -0.065266 -0.261495
v -0.150879 -0.116909 -0.030946
v 0.146572 -0.116909 -0.030946
v 0.439614 -0.065266 -0.261495
v -0.443921 0.877698 -0.368398
v -0.151068 0.877925 -0.137915
v 0.146762 0.877925 -0.137915
v 0.439614 0.877698 -0.368398
v -0.112719 0.882864 0.299269
v -0.007871 -0.111979 0.278407
v 0.161054 -0.111743 -0.053994
v 0.056179 0.883091 -0.032934
v 0.103004 -0.111743 -0.345725
v -0.001944 0.883091 -0.325034
v -0.180301 -0.111979 -0.588139
v -0.285148 0.882864 -0.567277
v -0.443921 -0.065266 -0.261495
v -0.150879 -0.116909 -0.030946
v 0.146572 -0.116909 -0.030946
v 0.439614 -0.065266 -0.261495
v -0.443921 0.877698 -0.368398
v -0.151068 0.877925 -0.137915
v 0.146762 0.877925 -0.137915
v 0.439614 0.877698 -0.368398
v -0.112719 0.882864 0.299269
v -0.007871 -0.111979 0.278407
v 0.161054 -0.111743 -0.053994
v 0.056179 0.883091 -0.032934
v 0.103004 -0.111743 -0.345725
v -0.001944 0.883091 -0.325034
v -0.180301 -0.111979 -0.588139
v -0.285148 0.882864 -0.567277

vt 0.666667 0.000000
vt 1.000000 1.000000
vt 1.000000 0.000000
vt 0.000000 0.000000
vt 0.333333 0.000000
vt 0.333333 1.000000
vt 0.666667 1.000000
vt 0.000000 1.000000

vn 0.795352 0.096372 -0.598438
vn 0.647735 0.084112 -0.757209
vn 0.611449 -0.086798 -0.786509
vn 0.212174 -0.104434 -0.971635
vn 0.427963 -0.098166 -0.898449
vn -0.215884 -0.104347 -0.970827
vn -0.427757 -0.098191 -0.898545
vn -0.611186 -0.086841 -0.786709
vn -0.606033 -0.089604 -0.790377
vn -0.963856 -0.096374 -0.248383
vn -0.888221 -0.084140 -0.451647
vn -0.994293 -0.104347 -0.022212
vn -0.910029 -0.104346 0.401196
vn -0.795352 -0.096372 0.598438
vn -0.647735 -0.084112 0.757209
vn -0.427963 0.098166 0.898449
vn -0.611449 0.086798 0.786509
vn -0.616062 0.088732 0.782684
vn -0.212174 0.104434 0.971635
vn 0.215884 0.104347 0.970827
vn 0.427757 0.098191 0.898545
vn 0.611186 0.086841 0.786709
vn 0.606033 0.089604 0.790377
vn 0.963856 0.096374 0.248383
vn 0.888262 0.084113 0.451569
vn 0.994293 0.104347 0.022212
vn 0.910029 0.104346 -0.401196
vn 0.616062 -0.088732 -0.782684

usemtl default
f 31/3/2 32/2/2 29/1/1
f 6/6/5 2/5/4 1/4/3
f 2/5/4 6/6/5 7/7/6
f 7/7/6 3/1/7 2/5/4
f 3/1/7 7/7/6 8/2/8
f 8/2/8 4/3/9 3/1/7
f 10/4/11 9/8/11 12/6/10
f 12/6/10 11/5/12 10/4/11
f 11/5/12 12/6/10 14/7/13
f 14/7/13 13/1/14 11/5/12
f 13/1/14 14/7/13 16/2/15
f 16/2/15 15/3/15 13/1/14
f 21/8/18 17/4/17 22/6/16
f 18/5/19 22/6/16 17/4/17
f 22/6/16 18/5/19 23/7/20
f 19/1/21 23/7/20 18/5/19
f 23/7/20 19/1/21 24/2/22
f 20/3/23 24/2/22 19/1/21
f 25/8/25 26/4/25 28/6/24
f 27/5/26 28/6/24 26/4/25
f 28/6/24 27/5/26 30/7/27
f 29/1/1 30/7/27 27/5/26
f 30/7/27 29/1/1 32/2/2
f 1/4/3 5/8/28 6/6/5

